<svg width="71" height="35" viewBox="0 0 71 35" fill="none" xmlns="http://www.w3.org/2000/svg">
<path d="M46.4181 0.908378C46.2189 0.908511 46.0217 0.966736 45.8377 1.07972C45.6536 1.19271 45.4865 1.35825 45.3458 1.56687C45.0676 1.97843 44.9007 2.55975 44.9007 3.15651V30.2915C44.9007 30.8883 45.0606 31.4593 45.3458 31.8812C45.4866 32.0898 45.6538 32.2553 45.8379 32.3682C46.0219 32.4811 46.2192 32.5392 46.4185 32.5392C46.6178 32.5392 46.8151 32.4811 46.9991 32.3682C47.1832 32.2553 47.3504 32.0898 47.4912 31.8812C47.7694 31.4696 47.9363 30.8883 47.9363 30.2915V3.15548C47.9363 2.55872 47.7764 1.98769 47.4912 1.56584C47.3504 1.3571 47.1831 1.19149 46.999 1.0785C46.8149 0.965506 46.6175 0.907346 46.4181 0.907349V0.908378ZM23.3 10.473C23.3 9.23213 22.6205 8.22587 21.7839 8.22587C20.9473 8.22587 20.2678 9.23213 20.2678 10.473V30.2895C20.2678 31.5303 20.9473 32.5366 21.7839 32.5366C22.6205 32.5366 23.3 31.5303 23.3 30.2895V10.473Z" fill="#1E1E1E"/>
<path d="M23.7283 3.15955C23.7185 3.91342 23.5092 4.63152 23.1455 5.15972C22.782 5.68732 22.2931 5.98288 21.7838 5.98288C21.2746 5.98288 20.7857 5.68732 20.4221 5.15972C20.0584 4.63152 19.8492 3.91342 19.8394 3.15955C19.8391 2.39561 20.044 1.66282 20.4089 1.12234C20.5892 0.854767 20.8035 0.64247 21.0393 0.497616C21.2752 0.352762 21.5281 0.278198 21.7835 0.278198C22.0389 0.278198 22.2918 0.352762 22.5276 0.497616C22.7635 0.64247 22.9777 0.854767 23.158 1.12234C23.523 1.66282 23.7278 2.39561 23.7276 3.15955H23.7283Z" fill="#00EFE1"/>
<path d="M42.1591 15.3973C40.7014 10.5141 37.2527 7.06321 33.3178 7.65997C31.9912 7.86743 30.7151 8.52669 29.5895 9.58606C28.4635 10.6461 27.5186 12.0773 26.8286 13.7675C26.1383 15.4586 25.7216 17.363 25.6109 19.3317C25.4996 21.3011 25.6985 23.2827 26.1902 25.1182C26.6818 26.9543 27.4536 28.5974 28.4455 29.9191C29.4371 31.2397 30.6217 32.2032 31.9068 32.7341C33.1916 33.2648 34.5421 33.3478 35.8523 32.9765C37.1625 32.6052 38.3966 31.7897 39.458 30.594C39.6365 30.3914 39.7822 30.1324 39.8843 29.8357C39.9865 29.5394 40.0428 29.2122 40.0484 28.8789C40.0598 28.2877 39.9122 27.714 39.638 27.2836C39.3638 26.8532 38.9854 26.6014 38.5859 26.5834C38.2425 26.5671 37.9057 26.7254 37.6317 27.032C36.5813 28.2321 35.2755 28.8371 33.95 28.7379C32.8734 28.6566 31.8354 28.1191 30.9596 27.1894C30.0799 26.261 29.3974 24.9807 28.9921 23.4988C28.9369 23.299 28.9335 23.076 28.9827 22.8728C29.0318 22.6695 29.1301 22.5004 29.2585 22.3979C29.3436 22.3302 29.4387 22.2949 29.5353 22.295H40.0679C40.5753 22.2981 41.0719 22.0777 41.4945 21.662C41.917 21.2463 42.2464 20.6539 42.4407 19.9604C42.5702 19.5 42.6371 19.0063 42.6376 18.5076C42.6163 17.4372 42.4572 16.3826 42.1688 15.4003L42.1591 15.3973ZM34.2136 12.0513C35.3412 12.0517 36.4428 12.5528 37.3758 13.4897C38.3094 14.4277 39.0313 15.7585 39.4482 17.31C39.4834 17.4423 39.4965 17.5852 39.4865 17.7267C39.476 17.868 39.4424 18.0034 39.3886 18.1212C39.3348 18.239 39.2624 18.3356 39.1777 18.4027C39.093 18.4698 38.9984 18.5052 38.9023 18.5055H29.5241C29.428 18.5057 29.3333 18.4704 29.2488 18.4027C29.1639 18.3347 29.0916 18.238 29.0373 18.1218C28.9831 18.0055 28.9497 17.8687 28.94 17.7267C28.9299 17.5852 28.943 17.4423 28.9782 17.31C29.3951 15.7585 30.1171 14.4277 31.0507 13.4897C31.9852 12.5575 33.0858 12.0568 34.2129 12.0513H34.2136ZM58.8485 28.7461C57.7674 28.7465 56.7092 28.2861 55.8003 27.4199C54.8906 26.5502 54.167 25.3155 53.714 23.8599C53.2658 22.4025 53.1101 20.7852 53.2654 19.2006C53.4208 17.616 53.8806 16.1309 54.5903 14.9219L52.2953 12.0235C51.5523 13.3002 50.9874 14.7818 50.6332 16.3829C50.278 17.9841 50.1398 19.6732 50.2263 21.3535C50.3125 23.0337 50.6227 24.6727 51.1304 26.176C51.6452 27.6785 52.3554 29.0159 53.2202 30.1115C54.0847 31.2068 55.0867 32.0389 56.1689 32.5602C57.2508 33.0815 58.3917 33.2808 59.5259 33.1467C60.6603 33.0128 61.7655 32.5477 62.7778 31.7783C63.7906 31.0096 64.6908 29.9526 65.4268 28.6679L63.1318 25.7706C62.6037 26.7029 61.9437 27.4524 61.1984 27.9662C60.4537 28.4803 59.6418 28.7462 58.82 28.7451L58.8485 28.7461Z" fill="#1E1E1E"/>
<path d="M58.8484 7.58387C57.6075 7.58161 56.381 7.97648 55.253 8.74138C54.124 9.50647 53.1201 10.6232 52.3098 12.0153L54.5978 14.9137C55.5724 13.2521 56.9516 12.2281 58.4345 12.0653C59.9175 11.9024 61.3837 12.6138 62.5135 14.0443C63.6434 15.4772 64.3457 17.5119 64.4677 19.7063C64.5889 21.9011 64.1195 24.0779 63.1616 25.7634L65.4496 28.6608C66.5143 26.7957 67.1971 24.5198 67.4178 22.1005C67.6381 19.6806 67.3867 17.2179 66.6931 15.0022C65.9998 12.7875 64.893 10.9122 63.5031 9.59742C62.1118 8.28753 60.4976 7.58925 58.8484 7.58387V7.58387Z" fill="#00EFE1"/>
<path d="M17.4719 27.1328C17.2105 26.7976 16.8795 26.6047 16.5337 26.5861C16.188 26.5676 15.8484 26.7246 15.5713 27.031C14.7373 27.9753 13.7413 28.5555 12.6961 28.706C11.6508 28.8566 10.5979 28.5715 9.65647 27.8829C8.71491 27.1932 7.92189 26.1289 7.36635 24.8096C6.8109 23.4889 6.5157 21.965 6.51398 20.4095C6.51226 18.854 6.80409 17.3287 7.35661 16.0054C7.90869 14.6829 8.69946 13.615 9.63978 12.9218C10.5796 12.2279 11.6321 11.9373 12.6778 12.0829C13.7236 12.2286 14.7209 12.8047 15.5567 13.7459C15.8306 14.0583 16.1687 14.222 16.5144 14.2096C16.8602 14.1972 17.1925 14.0096 17.4559 13.678C17.6263 13.4619 17.7619 13.1944 17.8523 12.8929C17.9428 12.5915 17.9887 12.2622 17.9845 11.9309C17.9803 11.5996 17.9247 11.2745 17.8245 10.9792C17.7244 10.6839 17.5797 10.4236 17.4038 10.2219C16.1226 8.77093 14.5923 7.87986 12.9863 7.6497C11.3797 7.41875 9.76155 7.85899 8.31561 8.92041C6.86967 9.98184 5.6539 11.6219 4.8064 13.6543C3.95762 15.6869 3.50939 18.0299 3.51222 20.4191C3.51505 22.8083 3.96881 25.1489 4.82239 27.1771C5.67574 29.2032 6.89547 30.8353 8.34346 31.8887C9.79146 32.9421 11.4099 33.3747 13.0155 33.1375C14.6208 32.8993 16.1489 32.0008 17.4267 30.5436C17.6004 30.3421 17.7416 30.086 17.8401 29.7938C17.9386 29.5016 17.992 29.1806 17.9963 28.8542C18.0007 28.5278 17.956 28.204 17.8655 27.9063C17.7749 27.6086 17.6407 27.3444 17.4726 27.1328H17.4719Z" fill="#1E1E1E"/>
</svg>
