<svg width="91" height="12" viewBox="0 0 91 12" fill="none" xmlns="http://www.w3.org/2000/svg">
<path d="M0.409091 0.363621H2.09091L6.04545 10.0227H6.18182L10.1364 0.363621H11.8182V12H10.5V3.15908H10.3864L6.75 12H5.47727L1.84091 3.15908H1.72727V12H0.409091V0.363621ZM15.1207 12H13.6435L17.9162 0.363621H19.3707L23.6435 12H22.1662L18.6889 2.20453H18.598L15.1207 12ZM15.6662 7.45453H21.6207V8.70453H15.6662V7.45453ZM25.456 12V0.363621H29.3878C30.3007 0.363621 31.0469 0.528393 31.6264 0.857939C32.2098 1.1837 32.6416 1.62498 32.9219 2.1818C33.2022 2.73862 33.3423 3.35983 33.3423 4.04544C33.3423 4.73105 33.2022 5.35415 32.9219 5.91476C32.6454 6.47536 32.2173 6.92233 31.6378 7.25567C31.0582 7.58521 30.3158 7.74998 29.4105 7.74998H26.5923V6.49998H29.3651C29.9901 6.49998 30.492 6.39203 30.8707 6.17612C31.2495 5.96021 31.5241 5.66855 31.6946 5.30112C31.8688 4.92991 31.956 4.51135 31.956 4.04544C31.956 3.57953 31.8688 3.16286 31.6946 2.79544C31.5241 2.42801 31.2476 2.14014 30.8651 1.9318C30.4825 1.71968 29.9749 1.61362 29.3423 1.61362H26.8651V12H25.456ZM35.6122 12V0.363621H37.0213V5.54544H43.2259V0.363621H44.6349V12H43.2259V6.79544H37.0213V12H35.6122ZM48.8651 0.363621V12H47.456V0.363621H48.8651ZM51.6903 12V0.363621H53.0994V10.75H58.5085V12H51.6903Z" fill="#959595"/>
<path d="M60.2926 12V0.363621H64.8835C65.7661 0.363621 66.518 0.532181 67.1392 0.869303C67.7604 1.20264 68.2339 1.66665 68.5597 2.26135C68.8892 2.85226 69.054 3.53408 69.054 4.3068C69.054 5.07953 68.8873 5.76135 68.554 6.35226C68.2206 6.94317 67.7377 7.40339 67.1051 7.73294C66.4763 8.06248 65.715 8.22726 64.821 8.22726H61.8949V6.25567H64.4233C64.8968 6.25567 65.2869 6.17423 65.5938 6.01135C65.9044 5.84468 66.1354 5.61551 66.2869 5.32385C66.4422 5.02839 66.5199 4.68938 66.5199 4.3068C66.5199 3.92044 66.4422 3.58332 66.2869 3.29544C66.1354 3.00377 65.9044 2.77839 65.5938 2.6193C65.2831 2.45642 64.8892 2.37498 64.4119 2.37498H62.7528V12H60.2926ZM71.3139 12H68.6776L72.6946 0.363621H75.8651L79.8764 12H77.2401L74.3253 3.02271H74.2344L71.3139 12ZM71.1491 7.42612H77.3764V9.34658H71.1491V7.42612ZM79.4077 0.363621H82.1634L84.8168 5.37498H84.9304L87.5838 0.363621H90.3395L86.0952 7.88635V12H83.652V7.88635L79.4077 0.363621Z" fill="white"/>
</svg>
